<?xml version="1.0" encoding="utf-8"?>
<!-- Generator: Adobe Illustrator 27.5.0, SVG Export Plug-In . SVG Version: 6.00 Build 0)  -->
<svg version="1.1" xmlns="http://www.w3.org/2000/svg" xmlns:xlink="http://www.w3.org/1999/xlink" x="0px" y="0px"
	 viewBox="0 0 500 500" style="enable-background:new 0 0 500 500;" xml:space="preserve">
<g id="BACKGROUND">
	<rect style="fill:#FFFFFF;" width="500" height="500"/>
</g>
<g id="OBJECTS">
	<ellipse style="fill:#EAF7DF;" cx="250" cy="447.199" rx="166.131" ry="13.17"/>
	<g>
		
			<ellipse transform="matrix(0.7071 -0.7071 0.7071 0.7071 -93.1893 250.0086)" style="fill:#E6FFD4;" cx="255.192" cy="237.494" rx="170.336" ry="170.336"/>
		<path style="fill:#F7FFF0;" d="M142.829,176.049c25.851,3.514,50.336,13.37,75.344,20.803
			c37.781,11.23,78.121,16.963,116.681,8.804c38.561-8.159,75.139-31.812,92.113-67.384c1.293-2.71,2.438-6.045,0.806-8.566
			c-2.63-4.062-8.882-1.808-13.009,0.718c-49.08,30.044-108.61,42.627-165.65,35.014c-32.539-4.343-64.321-15.016-97.148-15.327
			c-29.096-0.275-69.875,11.056-81.581,41.211C93.51,178.176,115.84,172.381,142.829,176.049z"/>
		<path style="fill:#F7FFF0;" d="M258.01,266.583c61.318,1.635,120.534,21.347,178.686,40.862
			c-7.84,15.221-26.669,20.877-43.7,22.632c-32.98,3.4-66.129-2.113-99.188-4.62c-33.06-2.507-67.707-1.69-97.323,13.213
			c-14.908,7.502-27.942,18.295-42.685,26.117c-14.743,7.821-32.459,12.541-48.103,6.728c-15.082-5.604-27.955-25.831-17.387-40.317
			c9.963-13.657,31.643-27.086,46.075-35.523C171.423,274.024,215.43,265.447,258.01,266.583z"/>
		<path style="fill:#F7FFF0;" d="M241.188,106.348c25.896,12.263,51.288,26.831,79.47,32.006
			c28.182,5.175,60.742-1.264,77.887-24.222c-19.966,6.359-40.734-5.213-58.83-15.778c-28.607-16.702-58.94-32.232-91.861-35.909
			c-16.691-1.864-59.635-1.223-70.292,15.668c-7.32,11.603,13.83,10.511,22.719,12.75
			C214.443,94.431,228.017,100.111,241.188,106.348z"/>
		<path style="fill:#F7FFF0;" d="M120.674,196.027c18.841,0.992,36.911,7.37,54.906,13.039c17.995,5.669,36.702,10.735,55.487,8.987
			c-13.592,8.455-30.58,9.591-46.468,7.639c-15.888-1.952-31.303-6.716-47.116-9.201c-15.813-2.486-32.672-2.525-47.047,4.518
			c-4.663,2.285-14.419,8.875-19.28,3.499c-3.685-4.076,0.266-10.857,3.081-14.217C84.554,197.977,105.692,195.238,120.674,196.027z
			"/>
		
			<ellipse transform="matrix(0.7071 -0.7071 0.7071 0.7071 -33.0168 141.5859)" style="fill:#F7FFF0;" cx="154.401" cy="110.648" rx="14.241" ry="14.241"/>
		<ellipse style="fill:#F7FFF0;" cx="375.202" cy="240.61" rx="16.038" ry="14.043"/>
		<circle style="fill:#F7FFF0;" cx="415.234" cy="209.878" r="16.689"/>
	</g>
	<g>
		<path style="fill:#020B2A;" d="M225.634,235.771c-1.722-1.759-2.632-4.234-3.085-6.61c-0.242-1.271-0.201-2.589-0.47-3.849
			c-0.294-1.374-1.53-1.927-2.745-2.343c-2.006-0.685-4.341-0.878-6.108-2.137c-0.819-0.584-1.418-1.393-1.657-2.377
			c-0.321-1.319,0.288-2.673-0.019-3.966c-0.306-1.289-2.135-1.505-3.16-1.991c-1.168-0.553-2.224-1.275-3.179-2.145
			c-1.942-1.77-3.35-4.177-3.901-6.749c-0.302-1.41-0.2-2.907-0.643-4.286c-0.456-1.418-1.687-2.121-2.889-2.848
			c-2.307-1.397-4.583-3.103-5.977-5.462c-0.697-1.179-1.073-2.497-1.115-3.863c-0.023-0.75,0.101-1.556-0.134-2.284
			c-0.2-0.616-0.675-1.036-1.191-1.394c-1.14-0.789-2.309-1.448-3.347-2.384c-1.034-0.933-1.922-2.016-2.67-3.19
			c-0.747-1.175-1.321-2.456-1.722-3.788c-0.432-1.434-0.503-2.946-0.938-4.376c-0.464-1.521-1.578-2.584-2.719-3.628
			c-1.086-0.993-2.122-2.027-3.065-3.159c-3.184-3.822-5.397-8.417-6.409-13.28c-12.979-1.989-25.974-3.932-39.039-5.266
			c-23.393-2.389-47.156-2.975-70.436,0.822c-5.78,0.943-11.518,2.155-17.178,3.663c-2.842,0.757-5.665,1.589-8.463,2.498
			c-2.383,0.774-4.785,1.561-6.972,2.806c-1.97,1.121-3.828,2.695-4.55,4.916c-0.891,2.738,0.242,5.681,1.902,7.882
			c3.199,4.241,8.455,6.607,13.727,6.467c0.247-0.007,0.555,0.184,0.648,0.416c0.57,1.422,1.283,2.782,2.167,4.036
			c3.527,5.003,9.387,8.364,15.528,8.627c1.841,0.079,3.705-0.118,5.502,0.39c1.383,0.391,2.582,1.201,3.663,2.127
			c2.469,2.115,4.393,4.456,7.718,5.202c3.346,0.751,6.837,0.311,10.203,0.955c3.386,0.648,6.079,2.62,8.735,4.703
			c5.754,4.514,12.335,7.484,19.71,7.923c3.705,0.221,7.473-0.199,11.109,0.731c3.468,0.887,6.327,3.126,9.402,4.845
			c3.278,1.832,6.841,3.149,10.511,3.94c3.786,0.817,7.551,0.87,11.402,0.72c3.575-0.139,6.677,0.436,9.906,1.975
			c2.859,1.363,5.627,3.144,8.769,3.788c3.574,0.733,7.049-0.994,10.629-0.448c3.122,0.476,5.867,2.09,8.799,3.155
			c1.522,0.552,3.111,0.95,4.742,0.848c1.826-0.113,3.604-0.779,5.45-0.516c1.632,0.232,2.904,1.185,4.161,2.182
			c1.307,1.037,2.667,1.999,4.1,2.855c5.1,3.049,10.908,4.764,16.821,5.059C226.607,236.641,226.096,236.242,225.634,235.771z"/>
		<path style="fill:#020B2A;" d="M251.618,323.921c0.081,0.12,0.138,0.263,0.126,0.45c-0.086,1.293-0.197,2.584-0.338,3.872
			c-1.133,10.43-4.031,20.665-8.526,30.144c-2.25,4.745-4.877,9.305-7.887,13.608c-2.934,4.194-6.195,8.286-10.2,11.511
			c-4.096,3.298-8.976,5.507-14.22,6.114c-0.825,0.096-1.659,0.16-2.493,0.183c0.002,0.028,0.015,0.049,0.014,0.078
			c-0.022,1.043-0.01,2.086,0.038,3.128c0.195,4.153,1,8.284,2.329,12.222c0.659,1.952,1.448,3.886,2.407,5.711
			c0.818,1.557,1.974,3.03,3.894,3.004c1.879-0.025,3.644-1.302,5.031-2.447c1.494-1.233,2.925-2.546,4.294-3.917
			c2.75-2.756,5.23-5.771,7.413-8.994c2.181-3.221,4.068-6.643,5.6-10.219c1.751-4.086,3.031-8.352,4.331-12.597
			c2.678-8.745,5.327-17.517,7.271-26.46c0.965-4.44,1.749-8.922,2.249-13.44c0.483-4.362,0.696-8.744,0.712-13.132
			C253.012,323.181,252.332,323.578,251.618,323.921z"/>
		<path style="fill:#020B2A;" d="M418.843,114.657c-6.011,0.4-11.966,1.595-17.888,2.65c-5.984,1.066-11.958,2.183-17.923,3.351
			c-5.965,1.168-11.919,2.387-17.863,3.656c-2.923,0.624-5.844,1.261-8.762,1.91c-2.839,0.631-5.694,1.282-8.614,1.362
			c-5.771,0.158-10.895-2.606-16.05-4.811c-5.317-2.274-10.851-4.181-16.571-5.123c-10.276-1.692-21.353-0.1-29.437,6.887
			c-3.621,3.13-6.461,7.03-8.885,11.131c-2.129,3.601-3.879,7.389-5.769,11.111c-0.187,0.682-0.489,1.366-0.735,2.017
			c-0.292,0.772-0.58,1.545-0.873,2.317c-0.293,0.772-0.618,1.533-0.927,2.299c-0.105,0.26-0.218,0.517-0.331,0.774
			c4.304,4.106,8.21,8.606,11.454,13.635c0.273,0.423-0.427,0.903-0.722,0.501c-1.866-2.539-3.881-4.975-6.002-7.305
			c-8.827-9.695-19.617-17.304-30.644-24.279c-12.056-7.625-24.294-15.032-36.775-21.943c-6.448-3.571-12.987-6.983-19.656-10.124
			c-6.554-3.087-13.238-6.007-20.082-8.395c-5.941-2.074-12.818-3.821-18.964-1.549c-1.383,0.511-3.01,1.215-3.915,2.434
			c-0.924,1.244-0.824,3.108-0.766,4.586c0.111,2.861,0.881,5.697,2.139,8.264c1.278,2.607,3.075,4.972,5.286,6.859
			c1.094,0.934,2.295,1.619,3.498,2.387c0.62,0.396,0.483,1.356,0.557,2.014c0.08,0.705,0.183,1.408,0.308,2.107
			c1.046,5.851,3.65,11.403,7.437,15.981c1.883,2.276,4.046,4.312,6.456,6.022c0.538,0.382,1.537,0.77,1.747,1.428
			c0.218,0.682,0.206,1.506,0.346,2.216c0.304,1.546,0.729,3.076,1.287,4.55c1.088,2.874,2.621,5.587,4.553,7.978
			c0.995,1.232,2.095,2.359,3.263,3.427c1.197,1.095,2.364,2.229,2.953,3.777c0.575,1.512,0.633,3.147,1.063,4.698
			c0.393,1.419,1.031,2.769,1.852,3.991c0.821,1.222,1.855,2.33,3.026,3.222c1.135,0.865,2.587,1.431,3.489,2.571
			c1.049,1.326,0.684,2.862,0.851,4.411c0.154,1.425,0.84,2.724,1.752,3.809c0.962,1.146,2.132,2.088,3.369,2.921
			c1.177,0.793,2.508,1.411,3.526,2.418c1.12,1.109,1.457,2.606,1.612,4.121c0.151,1.475,0.324,2.904,0.912,4.281
			c1.115,2.611,3.201,4.848,5.817,5.995c1.201,0.527,2.629,0.785,3.398,1.96c0.84,1.284,0.361,2.772,0.354,4.188
			c-0.013,2.507,2.805,3.048,4.734,3.554c2.506,0.657,5.459,1.432,5.918,4.406c0.211,1.366,0.227,2.734,0.53,4.091
			c0.293,1.311,0.735,2.59,1.411,3.756c1.422,2.452,3.947,3.791,6.768,3.012c3.234-0.894,5.252-3.802,6.804-6.575
			c3.782-6.756,7.286-13.682,10.919-20.519c3.682-6.93,7.383-13.85,11.065-20.78c0.455-0.855,1.711-0.027,1.26,0.823
			c-0.838,1.578-1.658,3.165-2.496,4.743c-3.44,6.474-6.88,12.948-10.32,19.422l-5.16,9.711c-1.618,3.045-3.105,6.223-4.973,9.125
			c-1.618,2.513-3.806,4.742-6.763,5.559c-0.413,0.114-0.828,0.178-1.242,0.218c0.363,0.125,0.663,0.484,0.542,0.961
			c-1.649,6.475-3.134,12.991-4.449,19.541c-2.332,11.617-4.053,23.327-5.396,35.097c-0.655,5.742-1.323,11.487-2.244,17.193
			c-0.464,2.873-1.04,5.722-1.712,8.553c-0.395,1.664-0.864,3.296-1.378,4.916c-0.09,0.464-0.181,0.928-0.27,1.391
			c-0.543,2.823-1.115,5.64-1.709,8.453c-1.2,5.683-2.474,11.353-3.842,16.999c-1.355,5.593-2.808,11.16-4.256,16.73
			c-1.421,5.467-2.803,11-3.278,16.644c-0.086,1.026-0.172,2.308,0.655,3.078c0.729,0.678,1.851,0.782,2.798,0.812
			c2.536,0.08,5.095-0.292,7.531-0.987c4.863-1.388,9.033-4.28,12.552-7.856c3.472-3.528,6.408-7.609,9.051-11.782
			c2.738-4.323,5.115-8.872,7.098-13.589c3.943-9.38,6.347-19.382,7.049-29.534c-2.127,0.749-4.687,0.981-6.637-0.324
			c-2.156-1.443-2.458-4.138-2.43-6.521c0.035-2.993,0.357-5.99,0.932-8.928c0.577-2.949,1.345-5.946,2.664-8.657
			c0.186-0.382,0.717-0.055,0.629,0.303c-0.779,3.165-1.667,6.267-2.151,9.498c-0.235,1.572-0.399,3.154-0.49,4.74
			c-0.086,1.495-0.173,3.024-0.057,4.52c0.082,1.052,0.306,2.195,0.98,3.041c0.628,0.788,1.551,1.227,2.543,1.348
			c2.272,0.277,4.5-0.698,6.37-1.902c1.999-1.287,3.705-3.027,5.223-4.843c1.662-1.987,3.176-4.1,4.69-6.201
			c6.521-9.043,12.484-18.544,17.106-28.709c-0.049-0.034-0.1-0.059-0.146-0.103c-0.588-0.567-0.448-1.549-0.397-2.283
			c0.062-0.878,0.19-1.75,0.365-2.613c0.353-1.742,0.958-3.416,1.756-5.002c0.402-0.799,0.858-1.57,1.374-2.301
			c0.489-0.694,1.05-1.403,1.822-1.796c0.362-0.185,0.824,0.176,0.676,0.576c-0.298,0.803-0.853,1.478-1.327,2.18
			c-0.485,0.719-0.928,1.466-1.315,2.242c-0.67,1.346-1.164,2.789-1.49,4.255c-0.161,0.728-0.272,1.467-0.338,2.209
			c-0.034,0.378-0.055,0.757-0.067,1.136c0-0.003,0.005,0.087,0.007,0.178c0.075-0.027,0.161-0.055,0.186-0.065
			c1.516-0.601,2.992-1.298,4.448-2.031c0.727-0.366,1.439-0.761,2.155-1.146c0.344-0.185,0.685-0.404,1.035-0.604
			c3.705-2.751,7.231-5.721,10.347-9.145c3.18-3.494,5.965-7.38,8.264-11.507c2.629-4.72,4.532-9.797,6.223-14.916
			c0.867-2.624,1.691-5.263,2.505-7.904c0.826-2.679,1.611-5.375,2.177-8.123c0.439-2.132,0.653-4.269,0.785-6.426
			c0.177-0.514,0.371-1.023,0.599-1.532c0.546-1.22,1.226-2.379,1.876-3.545c1.264-2.268,2.525-4.559,3.016-7.125
			c1.883-3.369,3.192-7.051,4.118-10.811c1.332-5.41,1.884-10.967,2.548-16.487c0.694-5.768,1.619-11.462,3.268-17.042
			c1.63-5.515,3.65-10.928,5.871-16.23c1.009-2.406,1.967-5.002,3.816-6.908c0.862-0.888,1.89-1.63,2.993-2.242
			c-0.067-0.372,0.084-0.81,0.534-0.968c5.737-2.011,11.542-3.82,17.39-5.477c10.36-2.935,20.845-5.406,31.348-7.77
			c5.233-1.178,10.471-2.33,15.705-3.501c2.444-0.547,5.004-0.939,7.383-1.727c1.271-0.421,3.23-1.298,3.449-2.788
			C421.296,114.543,420.069,114.576,418.843,114.657z"/>
	</g>
</g>
</svg>
