<?xml version="1.0" encoding="iso-8859-1"?>
<!-- Uploaded to: SVG Repo, www.svgrepo.com, Generator: SVG Repo Mixer Tools -->
<svg height="800px" width="800px" version="1.1" id="Layer_1" xmlns="http://www.w3.org/2000/svg" xmlns:xlink="http://www.w3.org/1999/xlink" 
	 viewBox="0 0 491.52 491.52" xml:space="preserve">
<path style="fill:#D5D6DB;" d="M335.984,0.018H155.535c-11.527,0-20.873,9.345-20.873,20.873v180.448
	c0,11.528,9.346,20.873,20.873,20.873h180.448c11.528,0,20.873-9.345,20.873-20.873V20.89
	C356.857,9.363,347.512,0.018,335.984,0.018z"/>
<path style="fill:#EBF0F3;" d="M335.984,0.018H155.535c-11.527,0-20.873,9.345-20.873,20.873v162.574
	c0,11.528,9.346,20.873,20.873,20.873h180.448c11.528,0,20.873-9.345,20.873-20.873V20.89
	C356.857,9.363,347.512,0.018,335.984,0.018z"/>
<path style="fill:#2D93BA;" d="M201.321,269.308H20.873C9.345,269.308,0,278.653,0,290.181V470.63
	c0,11.528,9.345,20.873,20.873,20.873h180.448c11.528,0,20.873-9.345,20.873-20.873V290.181
	C222.194,278.653,212.849,269.308,201.321,269.308z"/>
<path style="fill:#27A2DB;" d="M201.321,269.308H20.873C9.345,269.308,0,278.653,0,290.181v162.575
	c0,11.528,9.345,20.873,20.873,20.873h180.448c11.528,0,20.873-9.345,20.873-20.873V290.181
	C222.194,278.653,212.849,269.308,201.321,269.308z"/>
<path style="fill:#3A556A;" d="M470.647,269.308H290.199c-11.528,0-20.873,9.345-20.873,20.873V470.63
	c0,11.528,9.345,20.873,20.873,20.873h180.448c11.528,0,20.873-9.345,20.873-20.873V290.181
	C491.52,278.653,482.175,269.308,470.647,269.308z"/>
<g>
	<path style="fill:#64798A;" d="M470.647,269.308H290.199c-11.528,0-20.873,9.345-20.873,20.873v162.575
		c0,11.528,9.345,20.873,20.873,20.873h180.448c11.528,0,20.873-9.345,20.873-20.873V290.181
		C491.52,278.653,482.175,269.308,470.647,269.308z"/>
	<path style="fill:#64798A;" d="M220.223,48.034h51.073v126.162h-27.071V72.035h-24.002V48.034z"/>
</g>
<g>
	<path style="fill:#FFFFFF;" d="M120.659,367.95c3.188-4.51,4.788-8.872,4.788-13.088c0-4.2-1.381-7.726-4.156-10.561
		c-2.762-2.82-6.317-4.23-10.65-4.23c-7.931,0-15.453,5.655-22.562,16.965l-22.562-13.366c5.905-9.137,12.368-16.055,19.404-20.756
		c7.035-4.686,16.01-7.036,26.894-7.036c10.885,0,20.462,3.467,28.702,10.386c8.241,6.917,12.367,16.333,12.367,28.246
		c0,6.492-1.66,12.72-4.964,18.684c-3.32,5.949-9.416,13.558-18.331,22.826l-22.738,23.648h49.824v25.266H67.692v-20.932
		l37.001-37.912C112.154,378.51,117.472,372.458,120.659,367.95z"/>
	<path style="fill:#FFFFFF;" d="M342.35,340.606v-24.002h77.249v19.492l-25.809,29.421c10.105,1.69,17.92,5.92,23.458,12.721
		c5.537,6.801,8.299,14.644,8.299,23.561c0,13.234-4.481,23.604-13.44,31.125c-8.96,7.521-20.432,11.28-34.386,11.28
		c-13.955,0-28.1-4.934-42.421-14.791l11.56-22.386c11.912,8.417,22.562,12.632,31.948,12.632c5.655,0,10.311-1.381,13.983-4.142
		c3.672-2.776,5.509-6.771,5.509-12.015c0-5.229-2.116-9.387-6.317-12.456c-4.216-3.056-10.046-4.597-17.509-4.597
		c-3.966,0-9.562,1.146-16.789,3.437v-20.77l24.193-28.51H342.35z"/>
</g>
</svg>