<svg width="123" height="71" viewBox="0 0 123 71" fill="none" xmlns="http://www.w3.org/2000/svg">
<path d="M20.355 50.695C20.355 51.085 19.425 51.4 17.565 51.64C15.735 51.88 13.905 52 12.075 52C10.245 52 9.075 51.895 8.565 51.685C8.055 51.475 7.8 51.145 7.8 50.695V23.065C7.8 22.315 8.655 21.625 10.365 20.995C12.105 20.365 14.07 20.05 16.26 20.05C17.04 20.05 17.625 20.08 18.015 20.14C19.035 20.29 19.755 20.935 20.175 22.075L24.495 33.685H24.675V23.065C24.675 22.315 25.53 21.625 27.24 20.995C28.95 20.365 30.9 20.05 33.09 20.05C34.98 20.05 36.18 20.41 36.69 21.13C37.05 21.64 37.23 22.105 37.23 22.525V50.695C37.23 51.085 36.3 51.4 34.44 51.64C32.61 51.88 30.585 52 28.365 52C26.175 52 24.975 51.715 24.765 51.145L20.58 40.075H20.355V50.695ZM55.2469 47.95C55.2469 51.64 54.4069 54.4 52.7269 56.23C51.0769 58.06 48.7969 58.975 45.8869 58.975C42.9769 58.975 41.1019 58.69 40.2619 58.12C39.4519 57.58 39.0469 56.335 39.0469 54.385C39.0469 52.465 39.4219 51.46 40.1719 51.37C41.2219 51.22 41.9569 50.95 42.3769 50.56C42.8269 50.17 43.0519 49.45 43.0519 48.4V29.545C43.0519 28.885 43.8919 28.24 45.5719 27.61C47.2819 26.95 49.1269 26.62 51.1069 26.62C53.8669 26.62 55.2469 27.325 55.2469 28.735V47.95ZM55.4719 20.815C55.4719 23.605 53.3719 25 49.1719 25C44.9719 25 42.8719 23.635 42.8719 20.905C42.8719 19.375 43.4269 18.325 44.5369 17.755C45.6769 17.185 47.2519 16.9 49.2619 16.9C51.2719 16.9 52.8019 17.17 53.8519 17.71C54.9319 18.22 55.4719 19.255 55.4719 20.815ZM73.2645 50.92V38.41C73.2645 36.16 73.1745 34.525 72.9945 33.505C72.8145 32.485 72.3795 31.975 71.6895 31.975C71.0895 31.975 70.7895 32.38 70.7895 33.19V50.92C70.7895 51.25 69.9195 51.52 68.1795 51.73C66.4395 51.91 64.6545 52 62.8245 52C60.9945 52 59.8395 51.925 59.3595 51.775C58.8795 51.595 58.6395 51.31 58.6395 50.92V19.735C58.6395 19.105 59.5095 18.475 61.2495 17.845C62.9895 17.215 64.8195 16.9 66.7395 16.9C68.7495 16.9 70.0245 17.275 70.5645 18.025C70.7445 18.265 70.8345 18.52 70.8345 18.79V25.405L70.3395 28.51H70.6545C71.0745 27.88 71.7345 27.325 72.6345 26.845C74.3145 25.945 76.1445 25.495 78.1245 25.495C80.9745 25.495 82.8945 26.41 83.8845 28.24C84.9045 30.04 85.4145 32.98 85.4145 37.06V50.92C85.4145 51.25 84.5295 51.52 82.7595 51.73C81.0195 51.91 79.2345 52 77.4045 52C75.6045 52 74.4645 51.925 73.9845 51.775C73.5045 51.595 73.2645 51.31 73.2645 50.92ZM97.1162 52.405C94.3862 52.405 92.2412 51.76 90.6812 50.47C90.0512 49.93 89.4962 49.135 89.0162 48.085C88.5662 47.035 88.3412 45.805 88.3412 44.395C88.3412 42.985 88.6712 41.755 89.3312 40.705C90.0212 39.655 90.8462 38.845 91.8062 38.275C92.7662 37.705 93.8912 37.24 95.1812 36.88C97.1312 36.37 99.2762 36.115 101.616 36.115H103.101C103.101 34.885 102.681 34.015 101.841 33.505C101.481 33.295 100.926 33.19 100.176 33.19C99.4562 33.19 98.5712 33.385 97.5212 33.775C96.5012 34.165 95.6462 34.57 94.9562 34.99C94.2662 35.38 93.8012 35.575 93.5612 35.575C93.0212 35.575 92.2862 34.87 91.3562 33.46C90.4262 32.02 89.9612 30.715 89.9612 29.545C89.9612 29.155 90.5162 28.645 91.6262 28.015C92.7362 27.385 94.2962 26.815 96.3062 26.305C98.3462 25.765 100.326 25.495 102.246 25.495C104.166 25.495 105.816 25.66 107.196 25.99C108.606 26.29 109.746 26.665 110.616 27.115C111.516 27.565 112.266 28.165 112.866 28.915C113.496 29.665 113.961 30.34 114.261 30.94C114.591 31.54 114.831 32.32 114.981 33.28C115.191 34.39 115.296 35.755 115.296 37.375V50.92C115.296 51.25 114.486 51.52 112.866 51.73C111.276 51.91 109.686 52 108.096 52C106.536 52 105.516 51.955 105.036 51.865C104.586 51.775 104.316 51.67 104.226 51.55C104.136 51.43 104.061 51.22 104.001 50.92L103.641 48.355H103.281C102.531 51.055 100.476 52.405 97.1162 52.405ZM103.146 44.935V39.67C102.366 39.67 101.736 40 101.256 40.66C100.776 41.32 100.536 42.07 100.536 42.91C100.536 44.89 100.986 45.88 101.886 45.88C102.276 45.88 102.576 45.79 102.786 45.61C103.026 45.4 103.146 45.175 103.146 44.935Z" fill="url(#paint0_linear_1_5)" fill-opacity="0.74"/>
<defs>
<linearGradient id="paint0_linear_1_5" x1="61.5" y1="8" x2="61.5" y2="62" gradientUnits="userSpaceOnUse">
<stop stop-color="#030084"/>
<stop offset="1" stop-color="#3D2025"/>
</linearGradient>
</defs>
</svg>
