<?xml version="1.0" encoding="iso-8859-1"?>
<!-- Uploaded to: SVG Repo, www.svgrepo.com, Generator: SVG Repo Mixer Tools -->
<svg height="800px" width="800px" version="1.1" id="Layer_1" xmlns="http://www.w3.org/2000/svg" xmlns:xlink="http://www.w3.org/1999/xlink" 
	 viewBox="0 0 491.173 491.173" xml:space="preserve">
<path style="fill:#F6C358;" d="M335.746,0.018H155.425c-11.519,0-20.858,9.338-20.858,20.858v180.32
	c0,11.52,9.339,20.859,20.858,20.859h180.321c11.52,0,20.858-9.338,20.858-20.859V20.876C356.604,9.356,347.266,0.018,335.746,0.018
	z"/>
<path style="fill:#FCD462;" d="M335.746,0.018H155.425c-11.519,0-20.858,9.338-20.858,20.858v162.459
	c0,11.52,9.339,20.859,20.858,20.859h180.321c11.52,0,20.858-9.338,20.858-20.859V20.876C356.604,9.356,347.266,0.018,335.746,0.018
	z"/>
<path style="fill:#3EA69B;" d="M201.179,269.118H20.858C9.338,269.118,0,278.456,0,289.976v180.321
	c0,11.52,9.338,20.858,20.858,20.858h180.321c11.52,0,20.858-9.338,20.858-20.858V289.976
	C222.037,278.456,212.698,269.118,201.179,269.118z"/>
<path style="fill:#44C4A1;" d="M201.179,269.118H20.858C9.338,269.118,0,278.456,0,289.976v162.46
	c0,11.52,9.338,20.858,20.858,20.858h180.321c11.52,0,20.858-9.338,20.858-20.858v-162.46
	C222.037,278.456,212.698,269.118,201.179,269.118z"/>
<path style="fill:#D15241;" d="M470.315,269.118H289.994c-11.52,0-20.858,9.338-20.858,20.858v180.321
	c0,11.52,9.338,20.858,20.858,20.858h180.321c11.52,0,20.858-9.338,20.858-20.858V289.976
	C491.173,278.456,481.834,269.118,470.315,269.118z"/>
<path style="fill:#E56353;" d="M470.315,269.118H289.994c-11.52,0-20.858,9.338-20.858,20.858v162.46
	c0,11.52,9.338,20.858,20.858,20.858h180.321c11.52,0,20.858-9.338,20.858-20.858v-162.46
	C491.173,278.456,481.834,269.118,470.315,269.118z"/>
<path style="fill:#DC8744;" d="M283.728,174.072L272,146.844h-52.842l-11.728,27.229h-29.929L231.972,48H259.2l54.472,126.072
	H283.728z M245.667,85.518L229.8,122.126h31.559L245.667,85.518z"/>
<g>
	<path style="fill:#FFFFFF;" d="M115.891,443.173H60.7V317.1h49.056c8.542,0,15.896,1.012,22.09,3.068
		c6.194,2.041,10.862,4.8,13.988,8.294c5.652,6.487,8.47,13.827,8.47,22.002c0,9.864-3.186,17.203-9.556,22.003
		c-2.157,1.688-3.669,2.745-4.507,3.156c-0.852,0.426-2.348,1.116-4.506,2.069c7.808,1.689,14.032,5.211,18.655,10.554
		c4.639,5.358,6.943,11.993,6.943,19.934c0,8.777-2.994,16.542-9.012,23.265C145.351,439.268,133.212,443.173,115.891,443.173z
		 M88.839,368.136h13.342c7.81,0,13.622-0.836,17.409-2.524c3.787-1.673,5.681-5.314,5.681-10.906c0-5.592-1.747-9.292-5.226-11.097
		c-3.493-1.804-9.378-2.701-17.687-2.701H88.839V368.136z M88.839,419.364h19.302c8.044,0,14.091-0.998,18.113-2.979
		c4.037-1.982,6.048-5.886,6.048-11.714c0-5.841-2.129-9.688-6.401-11.552c-4.27-1.863-11.096-2.789-20.475-2.789H88.839V419.364z"
		/>
	<path style="fill:#FFFFFF;" d="M386.554,419.004c13.827,0,25.13-5.46,33.907-16.41l18.039,18.582
		c-14.311,16.117-31.176,24.16-50.596,24.16c-19.419,0-35.404-6.12-47.968-18.392c-12.564-12.27-18.847-27.741-18.847-46.441
		c0-18.701,6.4-34.304,19.2-46.809c12.814-12.507,28.476-18.76,46.986-18.76c20.681,0,38.001,7.882,51.946,23.632l-17.496,19.831
		c-8.896-11.053-19.963-16.586-33.188-16.586c-10.583,0-19.625,3.464-27.14,10.377c-7.515,6.914-11.273,16.219-11.273,27.948
		s3.553,21.137,10.642,28.226C367.853,415.467,376.455,419.004,386.554,419.004z"/>
</g>
</svg>